<svg width="114" height="113" viewBox="0 0 114 113" fill="none" xmlns="http://www.w3.org/2000/svg">
<path d="M57.1133 112.33C56.0133 112.33 55.1133 111.43 55.1133 110.33V103.05C55.1133 101.95 56.0133 101.05 57.1133 101.05C58.2133 101.05 59.1133 101.95 59.1133 103.05V110.33C59.1133 111.43 58.2133 112.33 57.1133 112.33Z" fill="white"/>
<path d="M57.1133 11.27C56.0133 11.27 55.1133 10.37 55.1133 9.27V2C55.1133 0.9 56.0133 0 57.1133 0C58.2133 0 59.1133 0.9 59.1133 2V9.27C59.1133 10.37 58.2133 11.27 57.1133 11.27Z" fill="white"/>
<path d="M33.5133 17.18C32.8233 17.18 32.1533 16.82 31.7833 16.18L28.1333 9.86C27.5833 8.9 27.9133 7.68 28.8633 7.13C29.8233 6.58 31.0433 6.91 31.5933 7.86L35.2433 14.18C35.7933 15.14 35.4633 16.36 34.5133 16.91C34.1933 17.09 33.8533 17.18 33.5133 17.18Z" fill="white"/>
<path d="M84.2433 105.03C83.5533 105.03 82.8833 104.67 82.5133 104.03L78.8533 97.7C78.3033 96.74 78.6233 95.52 79.5833 94.97C80.5433 94.42 81.7633 94.74 82.3133 95.7L85.9733 102.03C86.5233 102.99 86.2033 104.21 85.2433 104.76C84.9233 104.94 84.5833 105.03 84.2433 105.03Z" fill="white"/>
<path d="M16.0133 34.19C15.6733 34.19 15.3333 34.1 15.0133 33.92L8.67328 30.25C7.71328 29.7 7.39328 28.47 7.94328 27.52C8.49328 26.56 9.72328 26.24 10.6733 26.79L17.0133 30.46C17.9733 31.01 18.2933 32.24 17.7433 33.19C17.3733 33.83 16.7033 34.19 16.0133 34.19Z" fill="white"/>
<path d="M104.113 85.05C103.773 85.05 103.433 84.96 103.113 84.78L96.7633 81.11C95.8033 80.56 95.4833 79.33 96.0333 78.38C96.5833 77.42 97.8133 77.09 98.7633 77.65L105.113 81.32C106.073 81.87 106.393 83.1 105.843 84.05C105.473 84.69 104.803 85.05 104.113 85.05Z" fill="white"/>
<path d="M111.233 57.73H103.913C102.813 57.73 101.913 56.83 101.913 55.73C101.913 54.63 102.813 53.73 103.913 53.73H111.233C112.333 53.73 113.233 54.63 113.233 55.73C113.233 56.83 112.333 57.73 111.233 57.73Z" fill="white"/>
<path d="M9.43328 57.73H2.11328C1.01328 57.73 0.113281 56.83 0.113281 55.73C0.113281 54.63 1.01328 53.73 2.11328 53.73H9.43328C10.5333 53.73 11.4333 54.63 11.4333 55.73C11.4333 56.83 10.5333 57.73 9.43328 57.73Z" fill="white"/>
<path d="M97.3333 34.19C96.6433 34.19 95.9733 33.83 95.6033 33.19C95.0533 32.23 95.3733 31.01 96.3333 30.46L102.673 26.79C103.633 26.24 104.853 26.56 105.403 27.52C105.953 28.48 105.633 29.7 104.673 30.25L98.3333 33.92C98.0133 34.1 97.6733 34.19 97.3333 34.19Z" fill="white"/>
<path d="M9.23329 85.04C8.54329 85.04 7.87329 84.68 7.50329 84.04C6.95329 83.08 7.28329 81.86 8.23329 81.31L14.5733 77.65C15.5333 77.1 16.7533 77.43 17.3033 78.38C17.8533 79.34 17.5233 80.56 16.5733 81.11L10.2333 84.77C9.91329 84.95 9.57329 85.04 9.23329 85.04Z" fill="white"/>
<path d="M29.1033 105.03C28.7633 105.03 28.4233 104.94 28.1033 104.76C27.1433 104.21 26.8233 102.98 27.3733 102.03L31.0333 95.7C31.5833 94.74 32.8033 94.41 33.7633 94.97C34.7233 95.52 35.0433 96.75 34.4933 97.7L30.8333 104.03C30.4633 104.67 29.7933 105.03 29.1033 105.03Z" fill="white"/>
<path d="M79.8233 17.18C79.4833 17.18 79.1433 17.09 78.8233 16.91C77.8633 16.36 77.5433 15.13 78.0933 14.18L81.7533 7.86C82.3033 6.9 83.5333 6.58 84.4833 7.13C85.4333 7.68 85.7633 8.91 85.2133 9.86L81.5533 16.18C81.1833 16.82 80.5133 17.18 79.8233 17.18Z" fill="white"/>
<path d="M64.2533 63.32L47.3533 58.82L42.7333 76.16C42.3433 77.63 40.8333 78.51 39.3633 78.11L30.8333 75.84C29.3633 75.45 28.4833 73.94 28.8833 72.47L40.7333 27.96C41.1233 26.49 42.6333 25.61 44.1033 26.01L52.6333 28.28C54.1033 28.67 54.9833 30.18 54.5833 31.65L50.3033 47.72L67.2033 52.22L71.4833 36.15C71.8733 34.68 73.3833 33.8 74.8533 34.2L83.3833 36.47C84.8533 36.86 85.7333 38.37 85.3333 39.84L73.4833 84.35C73.0933 85.82 71.5833 86.7 70.1133 86.3L61.5833 84.03C60.1133 83.64 59.2333 82.13 59.6333 80.66L64.2533 63.32Z" fill="white"/>
</svg>
